HIERARCHY
ROOT root
{
	OFFSET 0.000000 0.000000 0.000000
	CHANNELS 6 Xposition Yposition Zposition Xrotation Yrotation Zrotation
	JOINT butt_bone
	{
		OFFSET 0.000000 0.000000 0.954673
		CHANNELS 6 Xposition Yposition Zposition Xrotation Yrotation Zrotation
		JOINT leg_IK.L
		{
			OFFSET 0.181159 0.000000 -0.926388
			CHANNELS 6 Xposition Yposition Zposition Xrotation Yrotation Zrotation
			JOINT knee_IK.L
			{
				OFFSET -0.000000 -0.486035 0.440368
				CHANNELS 6 Xposition Yposition Zposition Xrotation Yrotation Zrotation
				End Site
				{
					OFFSET 0.000000 -0.200000 0.000000
				}
			}
		}
		JOINT leg_IK.R
		{
			OFFSET -0.181159 0.000000 -0.926388
			CHANNELS 6 Xposition Yposition Zposition Xrotation Yrotation Zrotation
			JOINT knee_IK.R
			{
				OFFSET 0.000000 -0.486035 0.440368
				CHANNELS 6 Xposition Yposition Zposition Xrotation Yrotation Zrotation
				End Site
				{
					OFFSET 0.000000 -0.200000 0.000000
				}
			}
		}
		JOINT body_IK
		{
			OFFSET 0.000000 0.000000 0.000000
			CHANNELS 6 Xposition Yposition Zposition Xrotation Yrotation Zrotation
			JOINT body_lower
			{
				OFFSET 0.000000 0.000000 0.000000
				CHANNELS 6 Xposition Yposition Zposition Xrotation Yrotation Zrotation
				JOINT body_upper
				{
					OFFSET 0.000000 0.000000 0.487856
					CHANNELS 3 Xrotation Yrotation Zrotation
					JOINT head
					{
						OFFSET 0.000000 0.000000 0.572354
						CHANNELS 6 Xposition Yposition Zposition Xrotation Yrotation Zrotation
						End Site
						{
							OFFSET 0.000000 0.000000 0.708649
						}
					}
				}
			}
			JOINT leg_upper.L
			{
				OFFSET 0.181159 0.000000 -0.050481
				CHANNELS 6 Xposition Yposition Zposition Xrotation Yrotation Zrotation
				JOINT leg_lower.L
				{
					OFFSET 0.000000 -0.012850 -0.435539
					CHANNELS 3 Xrotation Yrotation Zrotation
					End Site
					{
						OFFSET 0.000000 0.012851 -0.440368
					}
				}
			}
			JOINT leg_upper.R
			{
				OFFSET -0.181159 0.000000 -0.050481
				CHANNELS 6 Xposition Yposition Zposition Xrotation Yrotation Zrotation
				JOINT leg_lower.R
				{
					OFFSET -0.000000 -0.012850 -0.435539
					CHANNELS 3 Xrotation Yrotation Zrotation
					End Site
					{
						OFFSET -0.000000 0.012851 -0.440368
					}
				}
			}
			JOINT arm_upper.L
			{
				OFFSET 0.520560 -0.000000 0.869124
				CHANNELS 6 Xposition Yposition Zposition Xrotation Yrotation Zrotation
				JOINT arm_lower.L
				{
					OFFSET -0.000000 0.021959 -0.435539
					CHANNELS 3 Xrotation Yrotation Zrotation
					End Site
					{
						OFFSET -0.000000 -0.021959 -0.440368
					}
				}
			}
			JOINT arm_upper.R
			{
				OFFSET -0.520560 -0.000000 0.869124
				CHANNELS 6 Xposition Yposition Zposition Xrotation Yrotation Zrotation
				JOINT arm_lower.R
				{
					OFFSET 0.000000 0.021959 -0.435539
					CHANNELS 3 Xrotation Yrotation Zrotation
					End Site
					{
						OFFSET 0.000000 -0.021959 -0.440368
					}
				}
			}
			JOINT arm_IK.L
			{
				OFFSET 0.520560 -0.000000 -0.006783
				CHANNELS 6 Xposition Yposition Zposition Xrotation Yrotation Zrotation
				JOINT elbow_IK.L
				{
					OFFSET 0.000000 0.486035 0.440368
					CHANNELS 6 Xposition Yposition Zposition Xrotation Yrotation Zrotation
					End Site
					{
						OFFSET 0.000000 0.200000 0.000000
					}
				}
			}
			JOINT arm_IK.R
			{
				OFFSET -0.520560 -0.000000 -0.006783
				CHANNELS 6 Xposition Yposition Zposition Xrotation Yrotation Zrotation
				JOINT elbow_IK.R
				{
					OFFSET -0.000000 0.486035 0.440368
					CHANNELS 6 Xposition Yposition Zposition Xrotation Yrotation Zrotation
					End Site
					{
						OFFSET 0.000000 0.200000 0.000000
					}
				}
			}
		}
	}
}
MOTION
Frames: 10
Frame Time: 0.041667
0.000000 0.000000 0.000000 -0.000000 0.000000 0.000000 -0.000000 -0.000000 1.111279 0.000000 -0.000000 0.000000 0.192497 0.546250 -0.597981 64.120655 9.851491 19.442583 -0.000000 -0.486035 0.440368 0.000002 0.000000 0.000000 -0.270143 -0.453326 -0.753879 -6.109442 0.880262 -8.833189 -0.000000 -0.486035 0.440368 0.000000 -0.000000 -0.000000 0.011071 0.006309 -0.039113 12.299402 0.637785 5.914116 -0.000000 0.000000 0.000000 -8.428757 -5.134291 4.526346 14.791997 -1.633396 -13.621192 0.010211 -0.029281 0.534969 -15.586082 0.660441 -6.007308 0.181159 0.000000 -0.050481 0.368828 -12.917256 13.100379 65.502368 0.000004 0.000010 -0.181159 0.000000 -0.050481 -67.121649 14.705759 -7.721519 41.871867 -0.000000 -0.000006 0.527889 0.008039 0.790989 -19.424066 -7.806683 -23.766943 -55.403377 -0.000005 0.000006 -0.520107 0.007490 0.800136 70.349016 14.449059 2.089085 -72.561409 0.000007 -0.000008 0.477614 -0.522953 0.256560 -73.791513 19.944533 -16.055779 0.000000 0.486035 0.440368 0.000000 -0.000001 0.000000 -0.642189 0.373363 0.240033 4.368659 -1.333808 9.365435 -0.000000 0.486035 0.440368 0.000002 -0.000000 -0.000000 
0.000000 0.000000 0.000000 -0.000000 0.000000 0.000000 -0.000000 -0.000000 1.101456 0.000000 -0.000000 0.000000 0.193414 0.518276 -0.522616 87.015053 16.374748 18.632860 -0.000000 -0.486035 0.440368 -0.000001 0.000001 -0.000003 -0.268771 -0.412425 -0.807617 -6.028313 0.337163 -8.986273 0.000000 -0.486035 0.440368 0.000000 -0.000000 -0.000000 0.011071 0.006309 -0.039113 12.299402 0.637785 5.914116 -0.000000 0.000000 0.000000 -8.188726 -4.793606 4.069330 14.817472 -1.471514 -12.707274 -0.000215 -0.021615 0.584309 -15.662206 0.090814 -5.482367 0.181159 0.000000 -0.050481 -4.184668 -16.228586 12.826600 80.768332 0.000006 0.000006 -0.181159 0.000000 -0.050481 -58.015360 13.823184 -10.399201 33.035320 -0.000001 -0.000002 0.523371 0.002445 0.845012 -15.531160 -7.373058 -24.357037 -49.137241 -0.000006 0.000006 -0.520384 0.002915 0.842273 62.013712 14.561579 3.057467 -67.852957 0.000006 -0.000007 0.480995 -0.475565 0.232223 -70.166547 19.935200 -16.659494 0.000000 0.486035 0.440368 0.000002 0.000000 -0.000001 -0.646158 0.319617 0.228236 -0.322610 -1.118199 9.764641 -0.000000 0.486035 0.440368 -0.000000 -0.000000 -0.000000 
0.000000 0.000000 0.000000 -0.000000 0.000000 0.000000 -0.000000 -0.000000 1.073862 0.000000 -0.000000 0.000000 0.197689 0.434588 -0.488670 101.941079 21.231372 15.615640 -0.000000 -0.486035 0.440368 0.000001 -0.000002 -0.000002 -0.264709 -0.290310 -0.874902 -4.852381 -0.203879 -9.399915 -0.000000 -0.486035 0.440368 -0.000000 -0.000000 0.000001 0.011071 0.006309 -0.039113 12.299402 0.637785 5.914116 -0.000000 -0.000000 0.000000 -7.455389 -3.786346 2.695306 14.878271 -0.984530 -9.970826 -0.013569 -0.012007 0.622909 -15.736513 -0.520086 -4.836884 0.181159 0.000000 -0.050480 -15.079683 -19.195588 11.546559 96.080128 0.000005 0.000009 -0.181159 0.000000 -0.050480 -46.210464 12.946507 -13.768746 29.134363 -0.000001 -0.000003 0.520492 -0.001120 0.879437 -4.408174 -8.134477 -25.334082 -46.433132 -0.000004 0.000003 -0.520560 -0.000000 0.869124 48.474505 15.002031 3.489476 -67.520730 0.000007 -0.000009 0.490548 -0.338968 0.168565 -59.610674 19.704273 -18.398860 0.000000 0.486035 0.440368 0.000005 -0.000001 0.000001 -0.648504 0.166396 0.197378 -14.305614 -0.678218 11.039553 -0.000000 0.486035 0.440368 0.000000 -0.000000 0.000001 
0.000000 0.000000 0.000000 -0.000000 0.000000 0.000000 -0.000000 -0.000000 1.036742 0.000000 -0.000000 0.000000 0.205368 0.311889 -0.495642 95.574625 21.480450 14.410125 0.000000 -0.486035 0.440368 0.000000 0.000001 0.000000 -0.259370 -0.127372 -0.928182 -1.160273 -0.798229 -9.963629 0.000000 -0.486035 0.440368 0.000000 0.000000 -0.000000 0.011071 0.006309 -0.039113 12.299402 0.637785 5.914116 -0.000000 0.000000 -0.000000 -6.250203 -2.232672 0.502333 14.926791 -0.209630 -5.642505 -0.024261 -0.001357 0.638111 -15.806352 -1.122320 -4.352821 0.181159 0.000000 -0.050481 -32.390215 -19.446360 8.666209 108.012372 0.000006 0.000008 -0.181159 0.000000 -0.050481 -31.660614 11.327123 -17.578868 23.749220 0.000001 -0.000001 0.520492 -0.001120 0.879437 8.000553 -9.002379 -26.223316 -44.948133 -0.000003 0.000007 -0.520560 -0.000000 0.869123 31.555754 15.231955 4.477896 -65.106149 0.000006 -0.000003 0.502012 -0.168264 0.104907 -46.479027 19.002840 -20.455054 0.000000 0.486035 0.440368 -0.000001 0.000000 -0.000001 -0.649314 -0.020916 0.166519 -32.178158 -0.584774 12.757375 -0.000000 0.486035 0.440368 0.000000 0.000000 -0.000001 
0.000000 0.000000 0.000000 -0.000000 0.000000 0.000000 -0.000000 -0.000000 1.003562 0.000000 -0.000000 0.000000 0.216506 0.140812 -0.518464 74.871536 19.714349 13.499906 -0.000000 -0.486035 0.440368 0.000000 -0.000000 0.000001 -0.254775 0.016581 -0.946567 5.449703 -1.506714 -10.456663 0.000000 -0.486035 0.440368 -0.000001 -0.000000 -0.000000 0.011071 0.006309 -0.039113 12.299402 0.637785 5.914116 0.000000 0.000000 0.000000 -4.700057 -0.399968 -2.217694 14.906458 0.739405 -0.350527 -0.027972 0.008862 0.642121 -15.874090 -1.668797 -4.235700 0.181159 0.000000 -0.050481 -57.092516 -17.017956 5.832285 115.539712 0.000011 0.000009 -0.181159 0.000000 -0.050481 -19.236891 9.424153 -20.045036 18.397849 0.000001 -0.000002 0.520492 -0.001120 0.879437 16.696930 -9.267683 -26.728740 -42.748566 -0.000004 -0.000001 -0.520560 -0.000000 0.869124 16.969028 14.858938 6.091855 -58.312767 0.000004 -0.000005 0.510218 -0.034774 0.080571 -36.723878 18.200106 -21.846937 0.000000 0.486035 0.440368 0.000001 0.000002 -0.000002 -0.649406 -0.160721 0.154722 -45.591014 -0.865394 14.020185 -0.000000 0.486035 0.440368 0.000002 -0.000000 -0.000001 
0.000000 0.000000 0.000000 -0.000000 0.000000 0.000000 -0.000000 -0.000000 1.036742 0.000000 -0.000000 0.000000 0.229335 -0.052312 -0.557889 41.897463 16.644486 11.321015 -0.000000 -0.486035 0.440368 -0.000005 0.000001 0.000000 -0.250180 0.166467 -0.922442 17.270415 -2.426451 -10.672488 0.000000 -0.486035 0.440368 0.000001 0.000000 0.000001 0.011071 0.006309 -0.039113 12.299402 0.637785 5.914116 0.000000 0.000000 -0.000000 -3.062778 1.357970 -4.989504 14.798636 1.682517 4.943631 -0.024008 -0.015205 0.579090 -15.838551 -1.364446 -4.383881 0.181159 0.000000 -0.050481 -78.525544 -12.438258 5.131966 110.014731 0.000008 0.000008 -0.181159 0.000000 -0.050481 -11.423153 9.026377 -20.143377 23.329611 0.000001 -0.000004 0.531686 0.012741 0.745575 41.155083 -16.233048 -23.594048 -78.037807 -0.000008 0.000007 -0.519875 0.011335 0.764713 13.977852 16.583535 4.697849 -77.086137 0.000008 -0.000004 0.514085 0.077244 0.096146 -29.499239 17.462820 -22.776174 0.000000 0.486035 0.440368 0.000000 0.000001 0.000000 -0.633808 -0.266301 0.179464 -55.485141 -1.256861 14.892078 -0.000000 0.486035 0.440368 0.000002 -0.000001 0.000001 
0.000000 0.000000 0.000000 -0.000000 0.000000 0.000000 -0.000000 -0.000000 1.073862 0.000000 -0.000000 0.000000 0.240858 -0.223754 -0.610147 9.713050 14.706408 7.875457 -0.000000 -0.486035 0.440368 0.000000 0.000000 0.000001 -0.244841 0.344923 -0.848138 36.085778 -3.404452 -10.463632 -0.000000 -0.486035 0.440368 0.000003 0.000001 0.000000 0.011071 0.006309 -0.039113 12.299402 0.637785 5.914116 0.000000 -0.000000 0.000000 -1.656424 2.738785 -7.301747 14.645944 2.443792 9.276946 -0.015205 -0.028014 0.545541 -15.792161 -0.942956 -4.785909 0.181159 0.000000 -0.050480 -85.266272 -9.070088 6.295868 92.577613 0.000007 0.000008 -0.181159 0.000000 -0.050480 -2.248688 8.501945 -18.609446 31.272062 -0.000000 -0.000004 0.530138 0.010824 0.764086 51.583211 -16.481001 -23.534617 -78.020547 -0.000009 0.000008 -0.519969 0.009768 0.779151 3.870298 13.996928 7.261107 -77.278502 0.000005 -0.000011 0.515259 0.191780 0.136888 -22.974021 16.701576 -23.527036 0.000000 0.486035 0.440369 -0.000000 -0.000000 -0.000003 -0.593006 -0.364088 0.244180 -64.327924 -1.729233 15.604609 -0.000000 0.486035 0.440368 0.000003 0.000000 0.000000 
0.000000 0.000000 0.000000 -0.000000 0.000000 0.000000 -0.000000 -0.000000 1.101456 0.000000 -0.000000 0.000000 0.248405 -0.335235 -0.668239 -9.792179 14.361922 5.432283 -0.000000 -0.486035 0.440368 -0.000001 -0.000000 0.000000 -0.240779 0.482558 -0.743620 57.179608 -4.036810 -10.128577 -0.000000 -0.486035 0.440368 -0.000003 -0.000000 0.000000 0.011071 0.006309 -0.039113 12.299402 0.637785 5.914116 0.000000 0.000000 0.000000 -0.735268 3.584349 -8.786765 14.519857 2.918118 12.017993 -0.004774 -0.026850 0.560346 -15.724308 -0.373759 -5.301779 0.181159 0.000000 -0.050481 -81.010292 -7.332755 8.259386 72.229141 0.000004 0.000008 -0.181159 0.000000 -0.050481 5.560162 7.849297 -16.294873 39.334766 -0.000002 -0.000004 0.526090 0.005811 0.812506 54.865906 -15.500467 -24.177181 -70.787691 -0.000010 0.000006 -0.520217 0.005668 0.816918 -3.340365 10.813503 9.639590 -74.907436 0.000004 -0.000007 0.517373 0.272209 0.177631 -18.827483 16.174883 -23.955750 0.000000 0.486035 0.440368 -0.000000 -0.000000 -0.000001 -0.552205 -0.427785 0.308897 -69.878518 -2.079746 16.011656 -0.000000 0.486035 0.440368 0.000001 0.000001 0.000002 
0.000000 0.000000 0.000000 -0.000000 0.000000 0.000000 -0.000000 -0.000000 1.111279 0.000000 -0.000000 0.000000 0.250909 -0.372070 -0.726027 -15.785824 14.389837 4.668124 -0.000000 -0.486035 0.440368 0.000000 -0.000001 -0.000001 -0.239407 0.529392 -0.643219 76.387019 -4.371730 -10.103251 0.000000 -0.486035 0.440368 -0.000000 -0.000000 -0.000001 0.011071 0.006309 -0.039113 12.299402 0.637785 5.914116 0.000000 0.000000 0.000000 -0.421998 3.861898 -9.286973 14.472700 3.075079 12.933680 0.009014 -0.023473 0.595098 -15.638823 0.296204 -6.015487 0.181159 0.000000 -0.050481 -72.851747 -6.077393 9.692295 56.093082 0.000001 0.000007 -0.181159 0.000000 -0.050481 5.573079 8.618451 -13.699411 53.753951 -0.000002 -0.000006 0.522040 0.000797 0.860926 51.745114 -14.241458 -24.856409 -61.345078 -0.000005 0.000009 -0.520466 0.001567 0.854686 -5.742319 9.184296 10.621824 -70.921180 0.000008 -0.000010 0.523612 0.298124 0.193206 -17.575417 16.009748 -24.077354 0.000000 0.486035 0.440368 0.000000 -0.000001 0.000000 -0.536606 -0.447306 0.333638 -71.541942 -2.192307 16.126862 0.000000 0.486035 0.440368 0.000002 0.000000 -0.000000 
0.000000 0.000000 0.000000 -0.000000 0.000000 0.000000 -0.000000 -0.000000 1.093982 0.000000 -0.000000 0.000000 0.245937 -0.311779 -0.808236 -14.872880 13.549914 5.707791 -0.000000 -0.486035 0.440368 -0.000002 -0.000001 -0.000001 -0.242139 0.403425 -0.537213 97.352995 -3.924775 -10.304833 0.000000 -0.486035 0.440368 0.000000 -0.000000 0.000000 0.011071 0.006309 -0.039113 12.299402 0.637785 5.914116 0.000000 0.000000 0.000000 -0.831042 3.498501 -8.633367 14.533845 2.869690 11.736401 0.022807 -0.018449 0.618163 -15.536647 1.020352 -6.733043 0.181159 0.000000 -0.050481 -59.863616 -5.282219 11.031336 43.824413 0.000000 0.000007 -0.181159 0.000000 -0.050481 -14.077772 12.019757 -7.487022 88.876375 -0.000006 -0.000010 0.520492 -0.001120 0.879437 46.665075 -15.840665 -24.006964 -60.706400 -0.000006 0.000004 -0.520560 -0.000000 0.869124 -1.485311 8.798434 10.366452 -69.622092 0.000004 -0.000007 0.547038 0.237386 0.186178 -20.234010 16.357079 -23.814751 0.000000 0.486035 0.440368 -0.000001 -0.000000 0.000001 -0.536624 -0.406674 0.306927 -68.002661 -1.956887 15.877895 -0.000000 0.486035 0.440368 -0.000002 0.000002 0.000000 
